<?xml version="1.0" standalone="no"?>
<!DOCTYPE svg PUBLIC "-//W3C//DTD SVG 20010904//EN"
 "http://www.w3.org/TR/2001/REC-SVG-20010904/DTD/svg10.dtd">
<svg version="1.0" xmlns="http://www.w3.org/2000/svg"
 width="804.000000pt" height="804.000000pt" viewBox="0 0 804.000000 804.000000"
 preserveAspectRatio="xMidYMid meet">
<metadata>
Created by potrace 1.11, written by Peter Selinger 2001-2013
</metadata>
<g transform="translate(0.000000,804.000000) scale(0.100000,-0.100000)"
fill="#000000" stroke="none">
<path d="M6277 8033 c-1 -1 -47 -4 -102 -8 -55 -3 -118 -8 -140 -11 -22 -2
-58 -6 -80 -8 -22 -3 -59 -7 -82 -10 -24 -3 -60 -8 -80 -11 -21 -3 -49 -7 -63
-10 -14 -3 -54 -10 -90 -16 -112 -18 -360 -77 -480 -114 -63 -20 -122 -37
-130 -40 -103 -27 -340 -125 -546 -226 -101 -50 -382 -211 -418 -240 -6 -5
-65 -48 -131 -95 -199 -144 -301 -231 -490 -419 -133 -133 -204 -210 -256
-275 -19 -24 -41 -51 -49 -60 -23 -26 -52 -62 -84 -105 -17 -22 -33 -42 -36
-45 -3 -3 -28 -36 -55 -75 -27 -38 -53 -71 -57 -73 -5 -2 -8 -7 -8 -12 0 -4
-30 -51 -66 -104 -73 -107 -201 -313 -245 -393 -46 -84 -54 -98 -60 -103 -3
-3 -13 -20 -22 -37 -39 -75 -49 -93 -52 -93 -2 0 -3 189 -3 420 0 231 -2 420
-6 420 -3 0 -11 0 -16 0 -18 0 -253 -241 -311 -320 -63 -85 -156 -225 -188
-285 -12 -22 -26 -47 -31 -55 -39 -62 -203 -436 -215 -490 -2 -8 -20 -64 -40
-124 -20 -59 -38 -116 -41 -125 -2 -9 -8 -32 -13 -51 -13 -44 -61 -230 -65
-250 -2 -8 -7 -33 -11 -55 -5 -22 -10 -44 -11 -50 -3 -9 -6 -23 -18 -87 -3
-13 -7 -32 -9 -43 -3 -11 -8 -40 -12 -65 -4 -25 -9 -54 -12 -65 -2 -11 -6 -31
-8 -45 -9 -74 -17 -126 -20 -130 -2 -3 -6 -34 -10 -70 -4 -36 -9 -74 -11 -85
-2 -11 -6 -42 -9 -70 -3 -27 -7 -66 -10 -85 -6 -48 -17 -155 -21 -215 -1 -27
-3 -50 -4 -50 -1 0 -5 -53 -14 -190 -9 -125 -17 -354 -20 -547 -2 -135 0 -174
9 -160 6 9 37 76 70 147 32 72 89 194 127 273 37 79 68 148 68 153 0 5 5 9 10
9 6 0 10 8 10 18 0 10 4 22 9 28 4 5 46 83 93 174 107 207 122 234 128 240 3
3 18 30 34 60 16 30 74 132 130 225 56 94 103 175 105 180 2 6 7 12 10 15 4 3
33 48 66 100 33 52 63 100 67 105 5 6 47 66 94 135 77 111 210 294 238 327 6
7 16 18 21 25 225 284 488 564 709 753 32 28 64 55 70 60 29 27 250 196 269
206 12 7 24 15 27 18 7 9 166 113 210 137 19 10 37 21 40 24 15 15 312 164
350 175 14 4 30 11 35 15 6 4 35 16 65 27 30 12 64 25 75 29 11 4 22 8 25 9 3
1 12 5 20 8 8 3 47 16 85 27 39 12 83 26 99 31 16 5 31 7 33 5 5 -4 -86 -56
-98 -56 -5 0 -9 -4 -9 -9 0 -5 -9 -12 -19 -16 -26 -8 -266 -167 -371 -245 -85
-63 -255 -196 -276 -215 -6 -5 -35 -30 -65 -55 -186 -157 -504 -465 -669 -648
-109 -122 -111 -123 -160 -182 -25 -30 -57 -68 -72 -84 -90 -101 -359 -456
-436 -576 -19 -30 -38 -57 -41 -60 -3 -3 -11 -14 -18 -25 -7 -11 -43 -69 -80
-130 -37 -60 -70 -114 -72 -120 -2 -5 -7 -12 -10 -15 -9 -8 -66 -113 -140
-261 -124 -247 -196 -444 -257 -709 -10 -41 -19 -82 -20 -90 -1 -8 -7 -46 -13
-85 -20 -114 -28 -176 -36 -290 -9 -112 -9 -308 0 -400 11 -124 14 -142 24
-202 6 -32 13 -75 17 -96 3 -22 12 -56 19 -78 8 -21 12 -39 10 -39 -2 0 2 -18
10 -40 8 -22 15 -44 16 -48 4 -18 8 -32 34 -107 76 -221 209 -464 368 -673
149 -197 232 -281 362 -366 111 -73 122 -80 250 -143 115 -57 291 -127 306
-120 3 1 12 -3 20 -9 8 -6 70 -25 139 -42 161 -40 214 -49 400 -69 84 -9 337
-9 415 1 33 3 67 7 75 7 36 2 139 20 249 45 110 24 280 79 296 95 7 7 1 7 -17
0 -14 -5 -52 -13 -85 -16 -32 -4 -65 -8 -73 -10 -60 -17 -384 -23 -515 -11
-63 6 -190 25 -270 41 -96 19 -310 85 -390 121 -22 10 -42 18 -45 19 -15 2
-194 93 -249 126 -34 22 -67 39 -71 39 -5 0 -10 3 -12 8 -1 4 -32 27 -68 51
-100 68 -205 156 -304 256 -77 76 -113 117 -189 210 -78 96 -177 257 -245 397
-51 105 -154 392 -145 402 3 2 1 11 -3 18 -8 13 -9 17 -18 73 -5 28 -11 61
-21 113 -18 94 -24 337 -11 457 5 39 9 84 11 100 3 38 34 195 42 215 3 8 8 23
9 32 2 10 13 46 25 80 68 198 239 432 429 586 25 21 52 43 60 51 23 23 177
121 188 121 6 0 12 4 14 8 7 16 220 110 338 149 12 3 10 9 -10 25 -79 65 -104
85 -123 102 -12 10 -35 28 -50 40 l-28 22 103 63 c57 35 122 76 145 92 23 16
44 29 47 29 4 0 47 27 97 60 50 33 92 60 94 60 2 0 27 16 56 35 30 20 61 40
69 45 76 50 304 203 340 229 25 17 74 51 110 75 36 25 81 56 100 70 19 14 46
34 59 43 53 39 282 207 306 225 6 4 30 24 55 43 25 19 50 39 55 43 51 38 346
281 415 341 267 233 561 529 717 721 29 37 61 74 78 94 29 32 161 213 218 301
36 55 71 105 76 112 6 7 11 14 11 17 0 2 19 37 43 78 66 112 151 283 196 394
40 101 87 223 90 236 1 4 3 13 5 20 22 68 56 188 60 208 3 14 15 66 26 115 11
50 23 106 26 125 3 19 7 42 10 49 3 8 7 35 10 60 3 25 6 50 7 56 1 6 -67 10
-196 10 -109 0 -199 0 -200 -2z"/>
<path d="M5156 4345 c-11 -11 -16 -34 -16 -68 l0 -52 -52 -3 c-54 -3 -78 -15
-78 -38 0 -23 18 -28 107 -33 20 -1 22 -7 25 -63 3 -54 5 -61 25 -64 30 -5 37
11 35 73 -2 50 0 53 23 54 14 1 37 2 53 3 36 2 52 13 52 36 0 21 -17 28 -77
32 -24 1 -44 4 -44 7 -1 4 -3 15 -4 26 -13 94 -24 115 -49 90z"/>
<path d="M4119 3893 c-1 -16 -2 -44 -3 -63 -1 -33 -3 -35 -41 -38 -72 -4 -85
-10 -85 -37 0 -14 3 -26 8 -26 4 -1 25 -3 47 -4 22 -2 47 -3 55 -4 11 -1 15
-14 16 -53 2 -82 2 -80 32 -76 26 3 27 5 27 65 0 35 4 63 10 64 6 0 31 2 57 3
53 2 53 2 62 32 7 25 -13 34 -76 34 -43 0 -48 6 -54 63 -6 59 -11 67 -34 67
-15 0 -20 -7 -21 -27z"/>
<path d="M6550 3489 c6 -19 13 -56 16 -84 4 -27 8 -53 10 -56 22 -38 22 -590
0 -628 -2 -3 -6 -28 -10 -56 -7 -57 -12 -88 -22 -117 -3 -11 -7 -30 -9 -41 -2
-12 -8 -37 -13 -55 -6 -18 -11 -33 -11 -35 0 -1 -2 -9 -4 -17 -3 -8 -13 -40
-22 -70 -28 -91 -86 -229 -142 -338 -58 -111 -121 -215 -135 -220 -4 -2 -8 -8
-8 -14 0 -8 -43 -71 -60 -88 -3 -3 -21 -25 -40 -50 -219 -284 -580 -552 -930
-690 -106 -42 -306 -102 -385 -115 -11 -2 -36 -6 -55 -10 -19 -3 -51 -8 -70
-11 -168 -28 -501 -25 -690 6 -67 11 -78 13 -145 29 -359 85 -688 252 -961
487 -104 90 -274 266 -274 283 0 5 -3 11 -7 13 -16 6 -83 97 -144 194 -89 139
-84 131 -125 212 -20 39 -37 72 -39 72 -8 0 62 -227 85 -275 5 -11 20 -47 34
-80 25 -61 74 -158 116 -230 13 -22 28 -49 34 -60 15 -26 49 -79 56 -85 3 -3
21 -27 40 -55 19 -27 39 -55 45 -62 5 -6 26 -31 45 -55 38 -47 237 -248 285
-288 159 -132 416 -289 576 -350 30 -11 63 -25 74 -30 85 -38 298 -95 426
-114 20 -3 42 -8 50 -10 49 -18 419 -26 554 -12 148 14 400 69 500 109 17 6
35 12 41 13 22 3 194 80 284 127 95 50 292 176 342 220 15 13 39 32 53 43 32
23 217 205 260 255 135 158 236 310 320 484 35 72 65 137 67 145 2 8 6 17 9
20 7 7 56 156 81 245 18 66 24 94 32 140 2 11 7 31 10 45 4 14 8 41 11 60 2
19 7 62 12 95 10 73 10 406 0 495 -6 56 -19 133 -42 255 -3 17 -9 39 -12 50
-4 11 -8 26 -10 33 -2 6 -5 18 -6 25 -2 6 -7 26 -11 42 -4 17 -11 39 -16 50
-4 11 -20 54 -35 95 -29 79 -52 118 -35 59z"/>
<path d="M5476 3202 c-3 -10 -4 -34 -3 -55 1 -21 0 -42 -3 -47 -3 -5 -29 -11
-58 -13 -60 -5 -74 -13 -66 -43 5 -17 14 -21 57 -23 28 -1 56 -6 61 -11 6 -6
9 -31 7 -56 -3 -51 11 -74 39 -67 20 5 25 27 22 93 -2 30 13 40 60 40 49 0 68
9 68 31 0 17 -29 41 -47 38 -4 -1 -25 -1 -45 0 l-38 1 0 54 c0 53 -8 68 -37
72 -7 1 -14 -5 -17 -14z"/>
<path d="M2959 3108 c-6 -81 -10 -112 -12 -114 -1 -2 -24 -4 -50 -5 -61 -3
-84 -18 -69 -44 7 -14 24 -20 58 -22 27 -2 52 -7 58 -13 5 -5 10 -33 10 -62 1
-50 2 -53 29 -56 29 -4 28 -7 31 80 1 45 3 47 51 49 62 2 75 8 75 34 0 26 -22
35 -86 35 l-41 0 -2 51 c0 29 -6 58 -12 65 -14 17 -39 18 -40 2z"/>
<path d="M4164 2834 c-3 -13 -4 -31 -1 -39 4 -8 2 -17 -2 -19 -5 -3 -6 -16 -4
-29 4 -21 1 -23 -29 -24 -81 -1 -87 -3 -93 -24 -10 -29 7 -41 57 -43 24 -1 49
-5 55 -9 6 -4 11 -30 11 -59 1 -52 11 -68 41 -63 12 1 16 15 18 60 1 31 5 60
8 63 3 4 26 7 51 8 60 3 72 8 70 36 -1 18 -8 24 -36 28 -19 3 -47 5 -62 5 -24
-2 -28 2 -29 24 -1 14 -1 30 0 35 10 50 -43 98 -55 50z"/>
<path d="M5149 2257 c0 -1 -3 -29 -6 -62 -3 -33 -6 -61 -7 -62 -1 -2 -26 -5
-56 -7 -51 -5 -70 -16 -70 -43 0 -15 27 -23 87 -26 l43 -2 1 -45 c1 -25 1 -50
0 -57 -2 -16 32 -33 47 -24 7 4 14 33 15 67 2 65 -6 59 84 63 26 1 34 6 39 26
8 34 4 37 -56 40 -66 4 -66 3 -73 82 -2 18 -7 36 -10 40 -7 6 -36 14 -38 10z"/>
<path d="M3323 2077 c-4 -7 -10 -36 -13 -66 l-5 -55 -55 -4 c-47 -3 -70 -13
-70 -32 0 -20 24 -31 71 -33 l54 -3 3 -45 c4 -69 10 -85 31 -86 27 -2 32 8 32
60 0 67 4 72 54 74 60 2 75 8 75 33 0 25 -17 32 -78 34 -45 1 -47 3 -50 31 -5
65 -13 93 -27 99 -8 3 -18 0 -22 -7z"/>
<path d="M4649 1914 c-6 -8 -12 -38 -13 -67 l-1 -53 -41 1 c-55 2 -84 -10 -84
-34 0 -27 10 -32 70 -34 27 0 51 -4 51 -7 1 -3 3 -28 4 -56 1 -28 5 -56 8 -62
14 -21 59 0 56 26 -1 10 -1 35 0 57 l1 40 52 2 c28 1 57 8 65 16 17 16 7 47
-16 48 -64 4 -97 7 -101 8 -3 0 -5 16 -6 33 -2 74 -5 86 -18 91 -8 3 -20 -1
-27 -9z"/>
</g>
</svg>
